<?xml version="1.0" encoding="iso-8859-1"?>
<!-- Generator: Adobe Illustrator 18.0.0, SVG Export Plug-In . SVG Version: 6.00 Build 0)  -->
<!DOCTYPE svg PUBLIC "-//W3C//DTD SVG 1.1//EN" "http://www.w3.org/Graphics/SVG/1.1/DTD/svg11.dtd">
<svg version="1.1" id="Capa_1" xmlns="http://www.w3.org/2000/svg" xmlns:xlink="http://www.w3.org/1999/xlink" x="0px" y="0px"
	 viewBox="0 0 63.464 63.464" style="enable-background:new 0 0 63.464 63.464;" xml:space="preserve">
<g>
	<path style="fill:#1D1D1B;" d="M60.333,56.164c-2.997-2.156-5.538-4.222-7.327-7.322c10.474-2.656,12.222-16.635,9-25.333
		C57.863,12.326,47.143,6.138,35.668,4.966C24.534,3.828,10.756,6.847,3.985,16.55C0.312,21.814-0.401,28.656,0.18,34.899
		c0.55,5.912,3.238,10.146,7.652,14.005c9.413,8.23,25.709,13.58,35.995,3.893c3.47,5.225,10.414,7.056,16.26,5.255
		C60.988,57.774,61.043,56.675,60.333,56.164z M44.68,51.752c0.012-0.409-0.417-0.813-0.843-0.534
		C31.407,59.34,17.018,55.924,6.99,45.516C1.655,39.979,0.725,31.726,2.44,24.418c1.722-7.334,7.196-12.374,14.014-15.106
		c9.06-3.63,20.377-3.811,29.549,0.241c-1.58-0.058-3.17-0.049-4.718-0.084c-0.32-0.007-0.312,0.467,0,0.492
		c2.146,0.173,4.368,0.45,6.547,0.478c1.621,0.847,3.169,1.821,4.599,2.961c-2.463-0.356-5.006-0.28-7.471-0.106
		c-0.366,0.026-0.375,0.585,0,0.577c2.819-0.064,5.601,0.203,8.41,0.286c1.009,0.89,1.963,1.969,2.84,3.186
		c-2.728-0.49-5.657-0.225-8.347,0.214c-0.461,0.075-0.262,0.766,0.193,0.698c2.982-0.443,5.784-0.206,8.744-0.056
		c0.551,0.838,1.069,1.725,1.542,2.656c-2.34-0.116-4.718,0.02-7.049,0.052c-0.425,0.006-0.426,0.655,0,0.661
		c2.454,0.033,4.961,0.184,7.42,0.03c0.445,0.943,0.849,1.919,1.198,2.919c-2.707-0.277-5.593,0.009-8.285,0.06
		c-0.421,0.008-0.421,0.646,0,0.654c2.774,0.053,5.753,0.353,8.529,0.032c0.379,1.188,0.689,2.399,0.909,3.615
		c-1.975-0.197-4.27-0.195-6.16,0.159c-0.198,0.037-0.198,0.363,0,0.4c1.926,0.361,4.273,0.357,6.27,0.15
		c0.169,1.103,0.274,2.205,0.29,3.289c-3.135-0.255-6.37,0.006-9.505,0.084c-0.357,0.009-0.358,0.547,0,0.555
		c3.129,0.078,6.36,0.339,9.49,0.085c-0.015,0.761-0.057,1.514-0.158,2.248c-0.647-0.017-1.306,0.083-1.948,0.137
		c-1.017,0.085-2.033,0.17-3.05,0.255c-0.441,0.037-0.452,0.718,0,0.696l3.05-0.15c0.597-0.029,1.216-0.021,1.815-0.097
		c-0.187,0.993-0.448,1.956-0.817,2.861c-3.418-0.256-6.969,0.003-10.382,0.112c-0.312,0.01-0.313,0.475,0,0.485
		c3.305,0.106,6.74,0.353,10.059,0.136c-0.53,1.099-1.211,2.112-2.066,3.002c-0.995,0.06-1.998,0.225-2.986,0.284
		c-1.336,0.08-2.668,0.092-4.006,0.112c-0.277,0.004-0.265,0.394,0,0.422c1.843,0.194,3.984,0.347,5.962,0.125
		c-1.394,1.128-3.127,2.002-5.273,2.514c-0.154,0.037-0.276,0.101-0.385,0.174c-1.434-0.014-2.868,0.028-4.304,0.064
		c-0.33,0.008-0.331,0.505,0,0.513c1.241,0.031,2.481,0.064,3.721,0.064c-0.104,0.185-0.151,0.402-0.08,0.643
		c0.294,1.012,0.733,1.937,1.269,2.799c-0.861,0.006-1.725,0.046-2.576,0.065c-0.222,0.005-0.222,0.339,0,0.344
		c0.951,0.022,1.919,0.07,2.881,0.065c0.709,1.036,1.563,1.976,2.496,2.845c-1.604,0.106-3.141,0.001-4.676-0.555
		c-0.174-0.063-0.299,0.227-0.127,0.302c1.633,0.718,3.383,1.038,5.149,0.696c0.036-0.007,0.051-0.034,0.075-0.053
		c0.733,0.651,1.504,1.267,2.288,1.853C52.571,57.294,48.138,55.322,44.68,51.752z"/>
	<path style="fill:#1D1D1B;" d="M35.402,12.287c-5.496-2.256-12.358-0.406-15.816,4.487c-3.137,4.439-2.95,10.972,1.883,14.08
		c0.279,0.179,0.519-0.063,0.52-0.321c0.176,0.042,0.38-0.001,0.497-0.17c0.695-1.011,1.398-2.011,2.073-3.035
		c0.625-0.95,1.371-1.852,1.733-2.94c0.163-0.491-0.198-0.882-0.622-0.965c0.136-0.717,0.475-1.351,1.261-1.764
		c1.612-0.846,3.476,0.445,4.084,1.92c1.242,3.009-1.545,7.026-4.773,6.928c-0.6-0.018-0.729,0.871-0.179,1.054
		c-0.931,3.115-0.226,7.22,0.356,10.421c-0.113,0.198-0.161,0.455-0.018,0.65c0.594,0.81,1.444,0.691,2.364,0.618
		c1.03-0.081,2.09-0.207,3.051-0.602c0.052-0.021,0.091-0.053,0.134-0.081c0.347,0.174,0.813,0.11,1.007-0.277
		c0.532-1.06,0.284-2.207,0.295-3.37c0.01-1.067,0.082-2.137,0.157-3.203C45.847,34.594,45.839,16.571,35.402,12.287z
		 M33.003,34.046c-0.238,0.1-0.399,0.299-0.493,0.522c-0.048,0.051-0.089,0.111-0.116,0.182c-0.486,1.279-0.781,2.542-0.961,3.898
		c-0.118,0.888-0.303,1.846-0.137,2.722c-0.841-0.043-1.689,0.01-2.531,0.004c-0.408-0.003-0.838-0.054-1.237-0.015
		c-0.104-1.622-0.183-3.247-0.159-4.872c0.024-1.59,0.261-3.188,0.076-4.764c4.706-0.05,7.774-6.74,4.383-10.372
		c-1.597-1.71-4.228-2.395-6.221-0.944c-1.372,0.999-2.265,2.97-1.614,4.543c-0.331,0.582-0.613,1.199-0.903,1.784
		c-0.529,1.068-0.962,2.165-1.384,3.279c-6.748-8.969,3.619-20.578,13.614-15.558c3.93,1.974,6.366,6.169,5.862,10.583
		C40.627,29.895,37.204,32.279,33.003,34.046z"/>
	<path style="fill:#1D1D1B;" d="M32.58,45.443c-1.647,0.15-3.23,0.236-4.833,0.598c-0.456-0.583-1.541-0.629-1.707,0.273
		c-0.289,1.566-0.142,3.176,0.084,4.742c0.061,0.425,0.599,0.802,1.015,0.773c1.714-0.118,3.392,0.011,5.103,0.096
		c0.497,0.025,1.055-0.479,0.998-0.998c-0.161-1.469-0.063-2.955,0.156-4.413C33.469,46.025,33.186,45.388,32.58,45.443z
		 M28.063,49.67c-0.073-0.861-0.075-1.718-0.094-2.583c1.193-0.189,2.447-0.277,3.645-0.105c-0.139,0.925-0.228,1.852-0.294,2.784
		C30.241,49.63,29.151,49.618,28.063,49.67z"/>
</g>
<g>
</g>
<g>
</g>
<g>
</g>
<g>
</g>
<g>
</g>
<g>
</g>
<g>
</g>
<g>
</g>
<g>
</g>
<g>
</g>
<g>
</g>
<g>
</g>
<g>
</g>
<g>
</g>
<g>
</g>
</svg>
